<svg width="296" height="57" viewBox="0 0 296 57" fill="none" xmlns="http://www.w3.org/2000/svg">
<g clip-path="url(#clip0_108_759)">
<mask id="mask0_108_759" style="mask-type:luminance" maskUnits="userSpaceOnUse" x="3" y="3" width="290" height="51">
<path d="M279 3H17C9.26801 3 3 9.26801 3 17V40C3 47.732 9.26801 54 17 54H279C286.732 54 293 47.732 293 40V17C293 9.26801 286.732 3 279 3Z" fill="white"/>
</mask>
<g mask="url(#mask0_108_759)">
<path d="M6 17C6 10.9249 10.9249 6 17 6H279C285.075 6 290 10.9249 290 17V40C290 46.0751 285.075 51 279 51H17C10.9249 51 6 46.0751 6 40V17Z" fill="#FFE8CE"/>
<path d="M3 40V17C3 9.26801 9.26801 3 17 3V6C10.9249 6 6 10.9249 6 17V40L6.01465 40.5664C6.30945 46.3783 11.1148 51 17 51H279L279.566 50.9854C285.378 50.6906 290 45.8852 290 40V17C290 11.1148 285.378 6.30945 279.566 6.01465L279 6V3C286.732 3 293 9.26801 293 17V40C293 47.732 286.732 54 279 54H17C9.26802 54 3 47.732 3 40ZM279 3V6H17V3H279Z" fill="#212121"/>
<path d="M236.516 31.9999L230.588 21.3439C230.748 21.2479 230.996 21.1679 231.332 21.1039C231.684 21.0239 232.004 20.9839 232.292 20.9839C232.932 20.9839 233.468 21.1199 233.9 21.3919C234.332 21.6479 234.708 22.0639 235.028 22.6399L238.22 28.5919L237.5 30.0799L237.788 30.1999L241.532 22.6399C242.076 21.5359 242.988 20.9839 244.268 20.9839C244.556 20.9839 244.868 21.0239 245.204 21.1039C245.556 21.1679 245.812 21.2479 245.972 21.3439L240.044 32.0239V35.6719C240.044 36.5039 239.74 37.1359 239.132 37.5679C238.54 37.9999 237.668 38.2159 236.516 38.2159V31.9999Z" fill="#212121"/>
<path d="M217.364 38.2159C216.596 38.1519 215.996 37.9039 215.564 37.4719C215.132 37.0399 214.916 36.4959 214.916 35.8399C214.916 35.3279 215.044 34.7919 215.3 34.2319L220.724 22.1599C220.9 21.7599 221.124 21.4639 221.396 21.2719C221.684 21.0799 222.036 20.9839 222.452 20.9839C222.868 20.9839 223.212 21.0799 223.484 21.2719C223.772 21.4639 224.004 21.7599 224.18 22.1599L229.604 34.2319C229.86 34.7919 229.988 35.3199 229.988 35.8159C229.988 36.4879 229.772 37.0399 229.34 37.4719C228.908 37.9039 228.3 38.1519 227.516 38.2159L225.5 33.8239H219.38L217.364 38.2159ZM224.42 30.7999L221.948 24.6559L221.612 24.7999L222.26 26.4079L220.436 30.7999H224.42Z" fill="#212121"/>
<path d="M202.064 37.9999C201.552 37.9999 201.112 37.8159 200.744 37.4479C200.392 37.0799 200.216 36.6399 200.216 36.1279V23.5279C200.216 22.6639 200.504 22.0239 201.08 21.6079C201.656 21.1919 202.544 20.9839 203.744 20.9839V34.9519H209.936C210.736 34.9519 211.344 35.2159 211.76 35.7439C212.192 36.2559 212.408 37.0079 212.408 37.9999H202.064Z" fill="#212121"/>
<path d="M182.012 22.8082C182.012 22.3442 182.18 21.9602 182.516 21.6562C182.868 21.3522 183.292 21.2002 183.788 21.2002H190.34C191.524 21.2002 192.572 21.4402 193.484 21.9202C194.396 22.3842 195.1 23.0402 195.596 23.8882C196.108 24.7362 196.364 25.7202 196.364 26.8402C196.364 27.9762 196.116 28.9762 195.62 29.8402C195.124 30.6882 194.42 31.3442 193.508 31.8082C192.612 32.2722 191.556 32.5042 190.34 32.5042H185.54V35.6722C185.54 36.5042 185.236 37.1362 184.628 37.5682C184.036 38.0002 183.164 38.2162 182.012 38.2162V22.8082ZM190.34 29.4562C191.14 29.4562 191.756 29.2322 192.188 28.7842C192.62 28.3202 192.836 27.6642 192.836 26.8162C192.836 26.0002 192.62 25.3682 192.188 24.9202C191.756 24.4722 191.14 24.2482 190.34 24.2482H185.54V29.4562H190.34Z" fill="#212121"/>
<path d="M165.192 22.8082C165.192 22.3602 165.36 21.9842 165.696 21.6802C166.048 21.3602 166.472 21.2002 166.968 21.2002H177.696C177.696 22.2562 177.52 23.0242 177.168 23.5042C176.816 23.9842 176.248 24.2242 175.464 24.2242H168.72V28.0162H175.008C175.008 29.0722 174.832 29.8402 174.48 30.3202C174.128 30.8002 173.56 31.0402 172.776 31.0402H168.72V34.9762H175.968C176.736 34.9762 177.296 35.2162 177.648 35.6962C178 36.1762 178.176 36.9442 178.176 38.0002H166.968C166.472 38.0002 166.048 37.8482 165.696 37.5442C165.36 37.2402 165.192 36.8562 165.192 36.3922V22.8082Z" fill="#212121"/>
<path d="M147.433 22.8082C147.433 22.3442 147.601 21.9602 147.937 21.6562C148.289 21.3522 148.713 21.2002 149.209 21.2002H155.521C157.313 21.2002 158.689 21.6642 159.649 22.5922C160.625 23.5042 161.113 24.8082 161.113 26.5042C161.113 27.4482 160.921 28.2402 160.537 28.8802C160.169 29.5202 159.593 30.0242 158.809 30.3922V30.4882C160.201 31.1122 160.897 32.2882 160.897 34.0162V35.6722C160.897 36.5042 160.593 37.1362 159.985 37.5682C159.393 38.0002 158.521 38.2162 157.369 38.2162V34.1362C157.369 33.3362 157.209 32.7522 156.889 32.3842C156.585 32.0002 156.113 31.8082 155.473 31.8082H150.913V35.6722C150.913 36.5042 150.617 37.1362 150.025 37.5682C149.433 38.0002 148.569 38.2162 147.433 38.2162V22.8082ZM155.329 28.8082C156.065 28.8082 156.625 28.6082 157.009 28.2082C157.393 27.8082 157.585 27.2322 157.585 26.4802C157.585 25.6962 157.401 25.1202 157.033 24.7522C156.681 24.3842 156.113 24.2002 155.329 24.2002H150.913V28.8082H155.329Z" fill="#212121"/>
<path d="M121.456 23.5279C121.456 22.6959 121.752 22.0639 122.344 21.6319C122.952 21.1999 123.832 20.9839 124.984 20.9839V28.0159H131.728V23.5279C131.728 22.6959 132.024 22.0639 132.616 21.6319C133.224 21.1999 134.104 20.9839 135.256 20.9839V35.6719C135.256 36.5039 134.952 37.1359 134.344 37.5679C133.752 37.9999 132.88 38.2159 131.728 38.2159V31.0639H124.984V35.6719C124.984 36.5039 124.68 37.1359 124.072 37.5679C123.48 37.9999 122.608 38.2159 121.456 38.2159V23.5279Z" fill="#212121"/>
<path d="M110.307 38.2159C108.867 38.2159 107.579 37.9359 106.443 37.3759C105.307 36.8159 104.419 36.0399 103.779 35.0479C103.155 34.0399 102.843 32.8959 102.843 31.6159V27.5359C102.843 26.2559 103.147 25.1199 103.755 24.1279C104.379 23.1359 105.243 22.3679 106.347 21.8239C107.467 21.2639 108.739 20.9839 110.163 20.9839C111.587 20.9839 112.859 21.1999 113.979 21.6319C115.099 22.0479 115.963 22.6399 116.571 23.4079C117.195 24.1759 117.507 25.0479 117.507 26.0239C117.507 26.6639 117.299 27.1679 116.883 27.5359C116.467 27.8879 115.899 28.0639 115.179 28.0639C114.763 28.0639 114.355 28.0079 113.955 27.8959C114.003 27.5599 114.027 27.1519 114.027 26.6719C114.027 25.9039 113.667 25.2799 112.947 24.7999C112.227 24.3039 111.299 24.0559 110.163 24.0559C109.043 24.0559 108.131 24.3839 107.427 25.0399C106.723 25.6799 106.371 26.5119 106.371 27.5359V31.6159C106.371 32.6559 106.731 33.5039 107.451 34.1599C108.187 34.8159 109.139 35.1439 110.307 35.1439C111.443 35.1439 112.363 34.9039 113.067 34.4239C113.787 33.9439 114.147 33.3199 114.147 32.5519C114.147 32.0239 114.123 31.6399 114.075 31.3999C114.507 31.3039 114.899 31.2559 115.251 31.2559C115.971 31.2559 116.547 31.4399 116.979 31.8079C117.411 32.1759 117.627 32.6799 117.627 33.3199C117.627 34.2639 117.315 35.1119 116.691 35.8639C116.083 36.5999 115.219 37.1759 114.099 37.5919C112.995 38.0079 111.731 38.2159 110.307 38.2159Z" fill="#212121"/>
<path d="M92.0118 24.2482H86.2278C86.2278 22.2162 87.1478 21.2002 88.9878 21.2002H101.3C101.3 23.2322 100.38 24.2482 98.5398 24.2482H95.5398V35.6722C95.5398 36.5042 95.2358 37.1362 94.6278 37.5682C94.0358 38.0002 93.1638 38.2162 92.0118 38.2162V24.2482Z" fill="#212121"/>
<path d="M73.2437 38.2159C72.4757 38.1519 71.8757 37.9039 71.4437 37.4719C71.0117 37.0399 70.7957 36.4959 70.7957 35.8399C70.7957 35.3279 70.9237 34.7919 71.1797 34.2319L76.6037 22.1599C76.7797 21.7599 77.0037 21.4639 77.2757 21.2719C77.5637 21.0799 77.9157 20.9839 78.3317 20.9839C78.7477 20.9839 79.0917 21.0799 79.3637 21.2719C79.6517 21.4639 79.8837 21.7599 80.0597 22.1599L85.4837 34.2319C85.7397 34.7919 85.8677 35.3199 85.8677 35.8159C85.8677 36.4879 85.6517 37.0399 85.2197 37.4719C84.7877 37.9039 84.1797 38.1519 83.3957 38.2159L81.3797 33.8239H75.2597L73.2437 38.2159ZM80.2997 30.7999L77.8277 24.6559L77.4917 24.7999L78.1397 26.4079L76.3157 30.7999H80.2997Z" fill="#212121"/>
<path d="M56.0618 38.2159C55.1818 38.2159 54.4538 38.0239 53.8778 37.6399C53.3178 37.2559 52.9418 36.6959 52.7498 35.9599L49.0298 21.3919C49.4938 21.1199 50.0538 20.9839 50.7098 20.9839C51.3658 20.9839 51.8938 21.1279 52.2938 21.4159C52.6938 21.7039 52.9578 22.1279 53.0858 22.6879L54.9098 31.0399L54.4058 33.0319L54.6458 33.1039L57.6938 22.1839C57.8058 21.8159 57.9978 21.5279 58.2698 21.3199C58.5418 21.0959 58.8698 20.9839 59.2538 20.9839C59.6378 20.9839 59.9658 21.0959 60.2378 21.3199C60.5258 21.5279 60.7178 21.8159 60.8138 22.1839L63.2138 31.2799L62.7098 33.3919L63.0218 33.4879L65.4218 22.6879C65.5498 22.1279 65.8138 21.7039 66.2138 21.4159C66.6138 21.1279 67.1418 20.9839 67.7978 20.9839C68.4538 20.9839 69.0138 21.1199 69.4778 21.3919L65.7578 35.9599C65.5658 36.6959 65.1818 37.2559 64.6058 37.6399C64.0458 38.0239 63.3258 38.2159 62.4458 38.2159L58.9418 25.2799L58.7258 25.3519L59.1338 26.8639L56.0618 38.2159Z" fill="#212121"/>
<g opacity="0.07">
<path d="M81.5 167C102.975 125.774 120.931 109.466 160 88.5C114.431 75.8004 97.779 57.972 81.5 10C65.1468 54.6077 48.0919 71.9525 3 88.5C47.4975 105.972 64.9501 122.909 81.5 167ZM82.833 143.48C76.48 130.334 69.2849 119.572 60.061 110.398C51.4296 101.813 41.3395 94.9348 29.1999 88.745C41.5306 82.6833 51.7188 75.8082 60.3888 67.1119C68.6867 58.7888 75.2832 49.1081 81.0885 37.5514C86.9847 50.4249 93.7185 61.023 102.371 69.7824C111.359 78.8812 121.994 85.5764 134.922 90.9654C124.282 97.669 115.14 104.606 106.865 112.739C97.9671 121.485 90.2936 131.395 82.833 143.48Z" fill="#212121"/>
<path d="M127.084 89.4023C127.084 64.4859 106.481 44.2871 81.0663 44.2871C55.6515 44.2871 35.0488 64.4859 35.0488 89.4023C35.0488 114.319 55.6515 134.518 81.0663 134.518C106.481 134.518 127.084 114.319 127.084 89.4023Z" fill="#212121"/>
<path d="M66.9679 76.0316L26.0259 143.54L95.052 106.873L134.302 31.6543L66.9679 76.0316Z" fill="#212121"/>
<path d="M95.052 106.873L134.302 31.6543L66.9679 76.0315L26.0259 143.54L95.052 106.873ZM73.2114 82.1553L111.529 56.9017L88.7666 100.524L49.3837 121.445L73.2114 82.1553Z" fill="#212121"/>
<path d="M95.6044 76.0316L137.911 143.54L66.5841 106.873L26.0256 31.6543L95.6044 76.0316Z" fill="#212121"/>
<path d="M66.5841 106.873L26.0256 31.6543L95.6044 76.0315L137.911 143.54L66.5841 106.873ZM89.1528 82.1553L49.5579 56.9017L73.0791 100.524L113.775 121.445L89.1528 82.1553Z" fill="#212121"/>
<path d="M118.061 127.299C108.526 97.0291 109.321 80.4883 118.061 51.5054C89.931 67.3735 73.2853 66.8056 42.2673 51.5054C55.9075 80.935 56.0474 97.5418 42.2673 127.299C72.1837 114.252 88.7856 114.003 118.061 127.299ZM102.686 110.161C95.1288 107.98 87.8476 106.824 80.3762 106.844C73.6671 106.862 67.0726 107.829 60.2604 109.609C62.1379 102.734 63.1362 96.0653 63.1259 89.2631C63.1163 82.9475 62.2371 76.7651 60.6038 70.4439C67.5916 72.5531 74.3488 73.7271 81.1822 73.769C88.4375 73.8136 95.4076 72.5834 102.476 70.2472C101.33 76.5361 100.686 82.6239 100.632 88.8285C100.572 95.8323 101.264 102.786 102.686 110.161Z" fill="white"/>
</g>
<g opacity="0.07">
<path d="M220.5 49C244.164 3.57234 263.949 -14.3971 307 -37.5C256.787 -51.4938 238.438 -71.1391 220.5 -124C202.48 -74.8463 183.687 -55.7338 134 -37.5C183.032 -18.2474 202.263 0.415359 220.5 49ZM221.969 23.083C214.968 8.59739 207.04 -3.26136 196.876 -13.3706C187.365 -22.8306 176.247 -30.4094 162.87 -37.2301C176.457 -43.9095 187.684 -51.4852 197.237 -61.0678C206.381 -70.2391 213.65 -80.9064 220.047 -93.6408C226.544 -79.4553 233.964 -67.7772 243.498 -58.1251C253.402 -48.099 265.121 -40.7215 279.367 -34.7834C267.642 -27.3966 257.568 -19.753 248.45 -10.7907C238.645 -1.15308 230.19 9.76669 221.969 23.083Z" fill="#212121"/>
<path d="M270.729 -36.5059C270.729 -63.9616 248.027 -86.2188 220.022 -86.2188C192.017 -86.2188 169.315 -63.9616 169.315 -36.5059C169.315 -9.05025 192.017 13.2069 220.022 13.2069C248.027 13.2069 270.729 -9.05025 270.729 -36.5059Z" fill="#212121"/>
<path d="M204.487 -51.2389L159.372 23.1492L235.433 -17.2545L278.683 -100.138L204.487 -51.2389Z" fill="#212121"/>
<path d="M235.433 -17.2543L278.683 -100.138L204.487 -51.2389L159.372 23.1492L235.433 -17.2543ZM211.367 -44.4911L253.589 -72.3183L228.507 -24.2503L185.111 -1.19798L211.367 -44.4911Z" fill="#212121"/>
<path d="M236.042 -51.2389L282.66 23.1492L204.064 -17.2545L159.372 -100.138L236.042 -51.2389Z" fill="#212121"/>
<path d="M204.064 -17.2543L159.372 -100.138L236.042 -51.2389L282.66 23.1492L204.064 -17.2543ZM228.933 -44.4911L185.303 -72.3183L211.221 -24.2503L256.064 -1.19798L228.933 -44.4911Z" fill="#212121"/>
<path d="M260.787 5.25288C250.28 -28.1016 251.156 -46.3281 260.787 -78.2646C229.79 -60.7794 211.448 -61.4052 177.269 -78.2646C192.299 -45.8359 192.453 -27.5366 177.269 5.25288C210.234 -9.12355 228.528 -9.39805 260.787 5.25288ZM243.845 -13.6311C235.518 -16.0345 227.494 -17.3083 219.262 -17.2861C211.869 -17.2662 204.602 -16.201 197.096 -14.2395C199.165 -21.8156 200.265 -29.1637 200.253 -36.659C200.243 -43.6183 199.274 -50.4307 197.474 -57.3962C205.174 -55.072 212.62 -53.7784 220.15 -53.7321C228.144 -53.683 235.825 -55.0386 243.614 -57.6129C242.351 -50.683 241.641 -43.9749 241.582 -37.138C241.516 -29.4203 242.278 -21.7582 243.845 -13.6311Z" fill="white"/>
</g>
</g>
</g>
<rect x="1.5" y="1.5" width="293" height="54" rx="15.5" stroke="white" stroke-width="3"/>
<defs>
<clipPath id="clip0_108_759">
<rect x="3" y="3" width="290" height="51" rx="14" fill="white"/>
</clipPath>
</defs>
</svg>
